<svg width="12" height="12" viewBox="0 0 12 12" fill="none" xmlns="http://www.w3.org/2000/svg">
<g clip-path="url(#clip0_303_5)">
<path d="M1.61275 10.8004L0.636475 0H11.3637L10.3862 10.7987L5.99359 12L1.61275 10.8004Z" fill="#E44F26"/>
<path d="M6 11.0909L9.53259 10.1175L10.3636 0.863647H6V11.0909Z" fill="#F1662A"/>
<path d="M6.00011 4.90798H4.22498L4.10259 3.55178H6.00011V2.22729H2.63647L2.66859 2.58295L2.99801 6.23247H6.00011V4.90798ZM6.00011 8.34753L5.99403 8.34925L4.50015 7.95117L4.40466 6.89492H3.05791L3.24584 8.974L5.99403 9.72729L6.00011 9.72558V8.34753Z" fill="#EBEBEB"/>
<path d="M6 4.90813V6.23269H7.65336L7.49785 7.95064L6 8.34917V9.72729L8.75286 8.97438L8.77284 8.75069L9.08822 5.26381L9.12124 4.90813H6ZM6 2.22729V3.55186H9.2433L9.27024 3.25446L9.33149 2.58297L9.36364 2.22729H6Z" fill="white"/>
</g>
<defs>
<clipPath id="clip0_303_5">
<rect width="12" height="12" fill="white"/>
</clipPath>
</defs>
</svg>
